# xmcd
#
# Track frame offsets: 
#        150
#        18263
#        34217
#        54537
#        72125
#        94573
#        109991
#        127733
#        147825
#        160522
#        174863
#        190083
#        213500
#        226443
#        239009
#        252415
#
# Disc length: 3605 seconds
#
# Revision: 3
# Processed by: cddbd v1.5.2PL0 Copyright (c) Steve Scherf et al.
# Submitted via: ExactAudioCopyFreeDBPlugin 1.0
#
DISCID=d30e1310
DTITLE=Various Artist - Я не увижу Миссисипи 2
DYEAR=2004
DGENRE=Blues
TTITLE0=CROSSROADS - Blues Lives In Russia
TTITLE1=Арсен Шомахов и RAGTIME - Too Hot
TTITLE2=Николай Садиков и BLUES HAMMER BAND - I Don't Care
TTITLE3=BLUES DOCTORS - Ain't no blind
TTITLE4=J.A.M. - Early In The Morning
TTITLE5=ЛИГА БЛЮЗА - Я отменяю этикет
TTITLE6=ДР. АГРАНОВСКИЙ и "Черный хлеб" - Слишком поздно
TTITLE7=BLUES COUSINS - Moscow Boogie
TTITLE8=MODERN BLUES BAND - Boogie
TTITLE9=БРАТЕЦКИЙ и КОРАБЛИН - 32-20 Blues
TTITLE10=JOHN SANCHILLO - Don't Stop The Blues
TTITLE11=SVET BOOGIE BAND - Little Tia, Little Tia
TTITLE12=Арсен Шомахов и RAGTIME - Troublemaker
TTITLE13=BLUES DOCTORS - Your Blues Doctor
TTITLE14=MISHOURIS и Кожекина - Sometimes I Wonder
TTITLE15=DIRTY DOZEN feat. КАВЕРКИН - Rock Me Baby
EXTD=YEAR: 2004
EXTT0=
EXTT1=
EXTT2=
EXTT3=
EXTT4=
EXTT5=
EXTT6=
EXTT7=
EXTT8=
EXTT9=
EXTT10=
EXTT11=
EXTT12=
EXTT13=
EXTT14=
EXTT15=
PLAYORDER=
